<svg width="24" height="24" viewBox="0 0 24 24" fill="none" xmlns="http://www.w3.org/2000/svg">
<path d="M23.794 4.72472L19.2753 0.205969C19.1434 0.0740625 18.9646 0 18.7781 0H17.975V7.10466C17.975 8.53055 16.815 9.69061 15.3891 9.69061H7.10466C5.67877 9.69061 4.5187 8.53055 4.5187 7.10466V0H2.58591C1.16006 0 0 1.16006 0 2.58595V21.414C0 22.8399 1.16006 24 2.58591 24H4.5187V15.3891C4.5187 13.9632 5.67877 12.8032 7.10466 12.8032H16.8953C18.3211 12.8032 19.4812 13.9632 19.4812 15.3891V24H21.414C22.8399 24 24 22.8399 24 21.414V5.22188C24 5.03541 23.9259 4.85653 23.794 4.72472Z" fill="white"/>
</svg>
